<?xml version="1.0" encoding="utf-8"?>
<!-- Generator: Adobe Illustrator 26.4.1, SVG Export Plug-In . SVG Version: 6.00 Build 0)  -->
<svg version="1.1" baseProfile="basic" id="logo" xmlns="http://www.w3.org/2000/svg" xmlns:xlink="http://www.w3.org/1999/xlink"
	 x="0px" y="0px" viewBox="0 0 202.2 48.1" xml:space="preserve">
<g id="Group_209" transform="translate(-405.974 -310.983)">
	<g id="Group_7" transform="translate(405.974 310.983)">
		<path id="Path_14" fill="#FD4517" d="M7,47.1c-0.1-0.1-0.2-0.3-0.2-0.4V9c0-0.2-0.1-0.3-0.2-0.4C6.5,8.4,6.4,8.3,6.2,8.3H0.6
			C0.3,8.3,0,8,0,7.7V1.4C0,1.2,0.1,1.1,0.2,1c0.1-0.1,0.3-0.2,0.4-0.2h21.1c0.3,0,0.5,0.1,0.5,0.4c0,0,0,0.1,0,0.1v6.4
			c0,0.2-0.1,0.3-0.2,0.4c-0.1,0.1-0.2,0.2-0.4,0.2h-5.8c-0.3,0-0.5,0.1-0.5,0.4c0,0,0,0.1,0,0.1v37.8c0,0.2-0.1,0.3-0.2,0.4
			c-0.1,0.1-0.2,0.2-0.4,0.2H7.4C7.3,47.3,7.1,47.3,7,47.1"/>
		<path id="Path_15" fill="#FD4517" d="M48.6,0.9c0.1,0.1,0.2,0.2,0.2,0.4v45.5c0,0.3-0.1,0.5-0.4,0.5c0,0-0.1,0-0.1,0h-7.4
			c-0.2,0-0.3-0.1-0.4-0.2c-0.1-0.1-0.2-0.2-0.2-0.4v-15c0-0.3-0.1-0.5-0.4-0.5c0,0-0.1,0-0.1,0h-6c-0.2,0-0.3,0.1-0.4,0.2
			c-0.1,0.1-0.2,0.2-0.2,0.4v15c0,0.3-0.1,0.5-0.4,0.5c0,0-0.1,0-0.1,0h-7.4c-0.3,0-0.6-0.3-0.6-0.6V1.3c0-0.2,0.1-0.3,0.2-0.4
			c0.1-0.1,0.3-0.2,0.4-0.2h7.3c0.2,0,0.3,0.1,0.4,0.2C33,1,33.1,1.2,33.1,1.3v22.1c0,0.2,0.1,0.3,0.2,0.4c0.1,0.1,0.3,0.2,0.4,0.2
			h5.9c0.3,0,0.6-0.3,0.6-0.6v-22c0-0.3,0.3-0.6,0.6-0.6h7.3C48.3,0.8,48.5,0.8,48.6,0.9"/>
		<path id="Path_16" fill="#FD4517" d="M74.9,26.6c0.1,0.2,0.3,0.2,0.5,0.2c1.6-0.3,3.2-1.1,4.4-2.3c1.4-1.2,2-3.4,2-6.3
			s-0.7-5.1-2-6.4c-1.2-1.2-2.7-2-4.4-2.3h-0.2c-0.2,0-0.4,0.1-0.5,0.2c-0.1,0.2-0.2,0.4-0.2,0.5V26C74.7,26.2,74.8,26.4,74.9,26.6
			L74.9,26.6z M85.9,30.9c1.6,1.2,2.8,2.9,3.3,4.9c0.5,2.2,0.7,4.5,0.6,6.8v4.1c0.1,0.4-0.2,0.7-0.6,0.8c-0.1,0-0.1,0-0.2,0h-7
			c-0.4,0.1-0.7-0.2-0.8-0.6c0-0.1,0-0.1,0-0.2v-4.1c0.1-1.8-0.3-3.6-1.2-5.2c-0.6-1-1.7-1.7-2.9-1.8h-1.6c-0.4-0.1-0.7,0.2-0.8,0.6
			c0,0.1,0,0.1,0,0.2v10.2c0.1,0.4-0.2,0.7-0.6,0.8c-0.1,0-0.1,0-0.2,0h-7c-0.4,0.1-0.7-0.2-0.8-0.6c0-0.1,0-0.1,0-0.2v-45
			c-0.1-0.4,0.2-0.7,0.6-0.8c0.1,0,0.1,0,0.2,0h7.5c2.8-0.1,5.6,0.7,8,2.1c2.4,1.4,4.3,3.5,5.5,6c2.3,5.2,2.6,11.1,0.7,16.5
			c-0.6,1.6-1.6,3.2-2.7,4.5c-0.3,0.2-0.3,0.6-0.1,0.8C85.8,30.8,85.8,30.8,85.9,30.9"/>
		<path id="Path_17" fill="#FD4517" d="M101,39.2c0.2,0.1,0.4,0.2,0.6,0.1c4-1.1,5.9-6.2,5.9-15.4c0-5-0.6-8.6-1.8-10.7
			c-1.2-2.2-2.6-3.4-4.2-3.6h-0.2c-0.3,0-0.7,0.2-0.7,0.5c0,0.1,0,0.1,0,0.2v28.3C100.7,38.8,100.8,39,101,39.2 M106.1,1.9
			c2.7,0.8,5,2.8,7,6.2c2,3.4,3,8.6,3,15.8c0,7.2-1,12.5-2.9,15.9c-1.9,3.4-4.3,5.5-7,6.3c-3.5,0.9-7,1.3-10.6,1.2h-2.3
			c-0.4,0.1-0.7-0.2-0.8-0.6c0-0.1,0-0.1,0-0.2v-45c-0.1-0.4,0.2-0.7,0.6-0.8c0.1,0,0.1,0,0.2,0h2.3C99.2,0.7,102.7,1.1,106.1,1.9"
			/>
		<path id="Path_18" fill="#FD4517" d="M186.9,47.1c-0.1-0.1-0.2-0.3-0.2-0.4V9c0-0.2-0.1-0.3-0.2-0.4c-0.1-0.1-0.2-0.2-0.4-0.2
			h-5.6c-0.3,0-0.6-0.3-0.6-0.6V1.4c0-0.2,0.1-0.3,0.2-0.4c0.1-0.1,0.3-0.2,0.4-0.2h21.1c0.3,0,0.5,0.1,0.5,0.4c0,0,0,0.1,0,0.1v6.4
			c0,0.2-0.1,0.3-0.2,0.4c-0.1,0.1-0.2,0.2-0.4,0.2h-5.8c-0.3,0-0.5,0.1-0.5,0.4c0,0,0,0.1,0,0.1v37.8c0,0.2-0.1,0.3-0.2,0.4
			c-0.1,0.1-0.2,0.2-0.4,0.2h-7.4C187.2,47.3,187,47.3,186.9,47.1"/>
		<path id="Path_19" fill="#FD4517" d="M140.6,34.2h-4.1c-0.5,0-0.9-0.3-0.9-0.8c0-0.1,0-0.1,0-0.2l2.4-13.4c0.1-0.5,1-0.5,1.1,0
			l2.4,13.4c0.1,0.5-0.3,0.9-0.7,1C140.7,34.2,140.7,34.2,140.6,34.2 M144.3,1.5c0-0.4-0.4-0.7-0.8-0.7c0,0,0,0-0.1,0h-10
			c-0.4-0.1-0.8,0.2-0.9,0.6c0,0,0,0,0,0.1l-7.3,45c-0.1,0.2,0,0.5,0.2,0.6c0.2,0.2,0.4,0.2,0.6,0.2h6.9c0.4,0.1,0.8-0.2,0.8-0.6
			c0,0,0-0.1,0-0.1l0.8-4.4c0-0.4,0.4-0.7,0.8-0.7c0,0,0,0,0.1,0h6.4c0.4-0.1,0.8,0.2,0.9,0.6c0,0,0,0,0,0.1l0.6,4.4
			c0,0.4,0.4,0.7,0.8,0.7c0,0,0,0,0.1,0h7c0.2,0,0.4-0.1,0.6-0.2c0.1-0.1,0.2-0.3,0.2-0.5v-0.2L144.3,1.5z"/>
		<path id="Path_20" fill="#FD4517" d="M154.4,7.2c2-4.7,5.9-7.2,12.3-7.2c3.7,0,6.5,1,8.3,2.7c1.8,1.6,3,3.7,3.4,6.1
			c0.5,3.2,0.7,6.4,0.7,9.6c0.1,0.4-0.2,0.7-0.6,0.8c-0.1,0-0.1,0-0.2,0H171c-0.4,0.1-0.7-0.2-0.8-0.6c0-0.1,0-0.1,0-0.2
			c0.1-2.4-0.1-4.8-0.7-7.1c-0.5-1.3-1.9-2.2-3.3-2c-5.4,0-6.5,5-6.5,15c0,9.8,1.6,14.7,6.5,14.7c1,0.1,2-0.3,2.7-1
			c0.6-0.8,1-1.8,1-2.8c0.1-1.2,0.2-3,0.2-5.3c-0.1-0.4,0.2-0.7,0.6-0.8c0.1,0,0.1,0,0.2,0h7.3c0.4-0.1,0.7,0.2,0.8,0.6
			c0,0.1,0,0.1,0,0.2c0.1,3.2-0.2,6.4-0.7,9.6c-0.4,2.3-1.5,4.3-3.2,5.9c-2.4,2-5.4,3-8.5,2.9c-7.2,0-10.4-2.7-12.4-7.3
			c-2.2-5.3-3.2-10.9-3.1-16.6C151.1,18.4,152.2,12.6,154.4,7.2"/>
		<path id="Path_21" fill="#FD4517" d="M62.5,12.6l-2.7,19.7c-0.1,0.3-0.4,0.6-0.7,0.5h-3.3c-0.3,0-0.6-0.2-0.7-0.5l-2.7-19.7
			c0,0,0-0.1,0-0.1V1.4c0-0.4,0.3-0.6,0.7-0.6h8.6c0.4,0,0.7,0.3,0.7,0.6L62.5,12.6C62.5,12.6,62.5,12.6,62.5,12.6"/>
		<path id="Path_22" fill="#FD4517" d="M57.5,36.4c3,0,5.5,2.5,5.5,5.5s-2.5,5.5-5.5,5.5S52,44.9,52,41.8l0,0
			C52,38.8,54.4,36.4,57.5,36.4"/>
	</g>
</g>
</svg>
